PathFileType	4	(X/Y/Z)	C:/Users/beibeiliu/ov580/test_trc/User2\sequence.15_training_dense_right.trc
DataRate	CameraRate	NumFrames	NumMarkers	Units	OrigDataRate	OrigDataStartFrame	OrigNumFrames
120	120	18	19	mm	120	59	87
Frame#	Time	ThumbCMC			ThumbMCP			ThumbIP			ThumbTip			IndexMCP			IndexPIP			IndexTip			MiddleMCP			MiddlePIP			MiddleTip			RingMCP			RingPIP			RingTip			PinkyMCP			PinkyPIP			PinkyTip			BackHand1			BackHand2			BackHand3	
		X0	Y0	Z0	X1	Y1	Z1	X2	Y2	Z2	X3	Y3	Z3	X4	Y4	Z4	X5	Y5	Z5	X6	Y6	Z6	X7	Y7	Z7	X8	Y8	Z8	X9	Y9	Z9	X10	Y10	Z10	X11	Y11	Z11	X12	Y12	Z12	X13	Y13	Z13	X14	Y14	Z14	X15	Y15	Z15	X16	Y16	Z16	X17	Y17	Z17	X18	Y18	Z18	
58	0.483333	131.113	-21.2604	-27.5298	115.366	-48.3841	-51.1419	112.023	-67.005	-81.7166	134.15	-73.5769	-103.611	126.085	8.5562	-100.534	110.469	11.1935	-125.932	101.954	9.733	-150.751	148.187	-13.9024	-114.327	135.892	-50.7398	-122.834	131.182	-62.5434	-84.1161	165.045	-25.9445	-115.494	154.641	-57.4887	-121.424	144.365	-68.3982	-90.6523	200.31	-30.4896	-103.366	203.331	-37.7214	-126.997	210.456	-39.0774	-150.168	190.071	-4.98917	-57.9845	199.479	-1.96015	-25.2105	161.68	10.0692	-35.7556	
59	0.491667	131.267	-15.4522	-23.6703	108.338	-43.2623	-44.0673	110.057	-65.0535	-73.0185	123.446	-78.3323	-90.9493	123.679	6.60098	-100.064	113.458	4.01763	-125.407	104.975	0.263536	-152.667	143.518	-23.8482	-114.193	127.102	-56.5225	-115.448	124.629	-66.7391	-78.4164	163.197	-38.7214	-112.577	146.081	-67.289	-113.112	137.833	-73.9659	-79.2916	195.848	-43.523	-97.4536	197.757	-56.6876	-119.348	198.361	-63.8717	-142.202	187.161	-9.25005	-62.3155	200.043	-3.07816	-26.767	165.285	11.589	-37.4431	
60	0.5	129.441	-2.72219	-18.2562	108.919	-30.6764	-36.3326	96.6761	-56.2331	-59.2077	107.836	-76.4431	-79.5033	126.383	6.09736	-103.669	109.682	2.88232	-127.129	98.2239	-1.93049	-151.231	138.953	-24.0407	-107.453	114.349	-52.6583	-106.726	114.568	-60.5263	-62.9117	153.182	-48.4131	-106.794	132.908	-69.5405	-100.306	124.062	-69.9713	-64.6749	185.859	-56.6586	-90.7719	178.486	-71.8572	-113.989	181.908	-86.4538	-129.502	189.137	-13.4711	-60.9689	201.982	-5.09192	-29.4332	168.361	14.4412	-43.1379	
61	0.508333	132.953	13.0795	-20.7031	100.788	-9.73496	-26.3411	83.2715	-37.1297	-46.0663	91.9722	-59.5366	-60.6768	126.307	12.6318	-98.2699	109.437	5.02065	-124.254	92.8424	1.82695	-142.719	132.577	-24.6494	-100.416	98.6774	-43.666	-94.0849	96.6705	-42.6905	-54.7751	137.646	-44.0155	-95.9578	113.225	-60.4843	-89.1153	104.918	-56.6618	-52.9576	164.193	-61.8676	-85.432	155.083	-79.3356	-94.941	147.548	-97.1017	-116.615	183.532	-17.5559	-59.9445	201.092	-7.4365	-31.2283	171.181	20.4213	-44.0991	
62	0.516667	140.6	29.9522	-20.2547	104.668	12.1956	-22.6689	78.2219	-12.5997	-38.1358	76.0771	-36.7647	-48.5944	127.787	16.5688	-97.8193	109.053	13.0141	-117.783	88.1626	12.3898	-139.678	119.265	-18.5606	-97.9176	87.3285	-26.1607	-84.6828	89.6441	-21.1009	-42.6269	126.07	-39.709	-85.617	93.2746	-42.9819	-73.7435	92.2611	-32.1029	-37.2991	146.409	-61.8802	-70.8929	126.747	-76.2576	-82.1086	112.371	-91.3711	-96.2235	179.518	-17.5989	-55.675	202.049	-11.7982	-29.9086	176.377	19.0769	-47.453	
63	0.525	150.791	40.8475	-24.695	112.232	32.8766	-23.9839	80.2521	16.9725	-32.5042	69.9869	-11.3855	-42.2278	130.779	22.2824	-99.7787	110.086	28.1744	-121.446	89.0771	20.8563	-139.647	115.808	-8.15967	-92.0114	83.1706	-7.58976	-79.8411	88.7767	2.78967	-36.1313	115.854	-29.2461	-79.0784	85.667	-26.3106	-65.7838	87.1064	-10.0927	-34.5961	129.381	-53.3332	-62.6334	107.553	-60.217	-69.7284	88.7529	-75.6122	-79.1461	173.904	-19.9452	-58.3236	199.077	-14.7414	-30.1907	181.56	20.2572	-51.0166	
64	0.533333	169.141	46.7752	-26.6339	124.577	52.758	-30.4402	91.8955	45.8775	-33.8251	76.2672	18.243	-42.4916	141.158	32.1288	-103.121	118.482	36.7478	-126.956	97.9615	34.4754	-144.085	115.539	7.72397	-93.692	83.7597	13.7401	-77.1211	92.8949	29.5511	-41.4313	109.638	-13.9874	-78.6683	80.125	-1.52051	-61.7425	89.4973	16.58	-36.8856	116.612	-38.972	-61.2145	91.5144	-44.6476	-65.763	71.4737	-54.2133	-71.3646	167.759	-20.8786	-57.448	195.374	-20.4661	-32.5201	188.756	14.6316	-53.0285	
65	0.541667	182.977	48.163	-36.3555	145.558	61.2765	-38.3634	110.776	64.3653	-45.1583	89.1801	44.2052	-47.8997	151.549	30.3739	-108.696	130.01	34.0141	-132.103	113.262	38.7506	-150.04	116.376	12.5138	-97.417	91.559	31.4627	-83.5642	104.147	47.9547	-50.6033	108.521	0.743216	-82.6322	86.9904	20.0387	-70.3135	102.339	38.648	-42.7293	109.07	-26.033	-61.5923	82.2689	-27.5222	-64.339	63.1692	-29.2982	-71.6333	166.733	-20.5912	-55.9354	192.437	-22.5563	-31.9267	192.972	5.95873	-60.1925	
66	0.55	194.296	45.0221	-44.1934	161.336	64.9675	-47.4693	124.81	72.9756	-58.7495	102.463	55.961	-58.8649	157.3	25.6336	-116.558	145.832	32.7741	-138.446	125.368	38.3343	-162.605	126.399	16.2915	-101.943	100.954	41.8133	-91.5473	118.967	55.7808	-55.9272	109.018	6.08633	-87.0135	92.5297	31.9426	-74.7824	110.969	48.3004	-52.0329	108.858	-18.2329	-62.8088	87.0129	-14.5296	-66.7083	59.9794	-17.0393	-72.4765	161.995	-22.8922	-59.4492	186.573	-26.8562	-33.8474	197.071	0.738102	-60.243	
67	0.558333	203.245	40.0372	-50.0513	171.162	62.0906	-57.4814	136.608	68.3185	-68.829	111.747	59.7415	-70.4059	166.375	17.9983	-121.75	154.968	25.6037	-146.573	136.739	28.6111	-168.807	132.432	17.1072	-110.999	110.26	40.8339	-100.956	126.253	55.8346	-67.2469	118.511	2.01121	-91.2574	100.574	29.891	-87.4692	118.649	48.3158	-61.8108	111.941	-17.5879	-64.8914	86.5229	-12.4753	-76.4747	65.854	-14.1379	-80.8841	167	-24.1696	-59.3697	188.109	-32.883	-32.5161	201.651	-4.36836	-66.164	
68	0.566667	207.272	34.4745	-53.6169	177.584	55.1704	-63.4605	142.685	66.9354	-79.1571	116.765	52.96	-82.8064	176.854	9.4896	-124.912	165.358	12.7772	-150.142	153.577	19.3742	-175.898	138.727	5.27505	-117.717	118.754	31.5707	-110.759	133.517	49.0045	-76.9195	124.759	-5.85552	-99.7585	109.515	22.1733	-98.7213	127.863	42.8988	-71.4383	119.064	-23.8171	-74.8494	99.3114	-19.7409	-83.9352	73.745	-23.874	-96.4445	174.801	-28.7749	-63.5352	191.433	-35.5966	-37.7423	204.77	-12.9049	-66.723	
69	0.575	206.129	27.0484	-58.9153	177.865	47.4353	-70.3302	142.869	51.8537	-89.4391	120.752	39.5741	-92.1154	189.406	4.70385	-134.808	180.067	7.2627	-158.232	169.19	9.93196	-182.928	153.397	-5.2607	-125.513	128.365	20.5811	-122.622	136.54	35.2086	-84.5004	138.121	-18.1787	-108.666	118.895	7.25315	-110.212	128.255	27.2086	-78.8124	131.392	-37.1291	-87.3924	109.926	-39.7458	-92.7847	89.6377	-44.1048	-106.568	181.785	-37.6478	-69.5881	204.162	-37.3696	-39.5557	216.537	-12.7162	-66.3595	
70	0.583333	204.435	27.617	-56.9864	171.055	40.6595	-74.5582	139.165	42.093	-95.3294	120.074	20.9515	-103.187	198.26	2.637	-138.478	193.076	8.19572	-162.548	183.776	11.9307	-191.608	165.378	-15.2286	-130.556	137.672	7.37505	-132.776	135.834	21.2967	-94.0766	153.717	-26.7847	-118.502	127.956	-8.06662	-121.356	131.333	15.1438	-91.9082	149.999	-51.924	-98.2857	128.226	-59.329	-111.554	115.248	-64.5584	-126.347	193.658	-40.1428	-74.6884	210.436	-38.8016	-45.4828	223.344	-12.6585	-69.6996	
71	0.591667	195.908	28.781	-56.1653	161.748	38.8595	-73.993	134.06	25.0582	-97.0374	119.939	2.35481	-110.106	205.732	12.5152	-135.127	198.395	15.1831	-163.373	192.814	21.8886	-186.878	175.487	-9.97046	-137.202	143.143	0.387642	-137.489	137.432	13.831	-96.5392	165.395	-30.411	-126.208	136.205	-21.4601	-126.541	131.82	1.43309	-94.282	167.754	-57.1668	-103.584	153.51	-65.1643	-122.876	139.81	-74.3652	-139.445	207.915	-38.901	-75.3259	219.591	-34.6809	-41.7973	224.261	-3.10115	-63.5146	
72	0.6	184.482	27.3062	-47.7657	149.172	27.0837	-72.7589	127.089	12.5617	-97.4172	121.168	-11.1357	-111.691	202.436	22.0559	-127.9	196.257	29.9123	-159.042	188.898	34.1785	-184.708	179.815	-5.38692	-135.689	143.489	-5.72449	-136.633	132.896	1.19029	-100.163	176.117	-27.11	-128.165	142.73	-20.8995	-130.456	131.536	-13.6605	-96.4489	183.383	-53.151	-110.39	169.292	-64.101	-135.158	161.226	-77.2083	-154.283	214.631	-30.9122	-76.3991	222.604	-31.3074	-46.966	220.353	7.49562	-64.1329	
73	0.608333	170.303	23.4741	-44.5035	134.858	19.2411	-65.0682	119.347	1.35935	-92.487	119.803	-18.7914	-111.52	190.135	36.3522	-120.775	181.9	47.43	-145.986	176.391	50.9624	-171.299	176.885	4.64371	-131.474	144.136	-4.81732	-135.531	129.515	-9.09379	-97.8534	178.776	-18.3718	-126.858	144.477	-26.5093	-130.795	131.484	-22.9735	-96.7139	191.926	-46.0597	-113.596	182.795	-57.4186	-137.257	179.701	-64.7527	-161.82	213.622	-17.7952	-76.311	222.745	-20.6969	-41.6206	210.975	15.6267	-53.8699	
74	0.616667	156.423	18.0167	-34.24	127.485	6.9289	-60.1185	114.126	-7.87104	-87.4447	121.621	-25.3786	-109.35	171.011	46.0646	-109.292	162.103	56.534	-135.764	156.878	58.7787	-160.757	167.498	14.1985	-124.271	138.452	-6.47939	-129.331	128.764	-19.4312	-94.4485	177.821	-7.91558	-122.985	144.963	-24.702	-127.052	132.173	-29.9609	-98.4015	198.177	-30.1542	-112.943	192.763	-38.2447	-140.41	190.927	-40.5766	-163.712	211.899	-5.4748	-72.8809	220.037	-8.50014	-36.2849	198.413	25.2765	-48.7742	
75	0.625	144.352	10.3625	-27.9098	118.6	-4.79578	-52.6705	109.49	-18.3193	-84.5014	121.859	-28.5411	-113.983	150.41	51.4677	-99.3057	140.463	60.4385	-123.053	131.776	68.414	-147.153	157.757	24.4172	-113.938	132.701	-3.92233	-124.833	130.884	-23.3818	-87.7129	170.959	2.37467	-121.973	148.968	-15.4298	-128.319	137.519	-33.3382	-97.6347	200.494	-10.3782	-109.079	198.704	-15.1942	-133.466	199.959	-14.2308	-160.485	205.746	9.97885	-66.1999	213.647	3.66779	-31.6146	182.522	32.9339	-38.0053	
